<svg xmlns="http://www.w3.org/2000/svg" version="1.1" viewBox="1.8908231258392334 1.9366775751113892 380.4474182128906 322.63623046875" width="384.00" height="326.00">
<g stroke-width="2.00" fill="none" stroke-linecap="butt">
<path stroke="#439487" d="&#10;  M 156.56 111.41&#10;  L 101.67 111.12"/>
<path stroke="#439487" d="&#10;  M 95.36 111.22&#10;  L 60.72 111.15"/>
<path stroke="#439487" d="&#10;  M 275.73 175.39&#10;  L 267.67 175.44"/>
<path stroke="#439487" d="&#10;  M 127.22 175.71&#10;  Q 121.34 175.05 114.85 175.93"/>
<path stroke="#439487" d="&#10;  M 335.18 111.51&#10;  L 236.37 111.47"/>
<path stroke="#c0c0c0" d="&#10;  M 194.26 134.95&#10;  C 191.61 131.37 185.41 131.08 181.67 132.26&#10;  C 175.60 134.18 172.97 140.66 176.02 146.20&#10;  C 178.47 150.67 186.54 152.36 191.17 153.71&#10;  A 1.42 1.42 0.0 0 1 191.77 156.08&#10;  Q 190.58 157.25 188.57 157.25&#10;  Q 184.29 157.23 183.17 153.85&#10;  A 1.64 1.63 -8.5 0 0 181.64 152.72&#10;  L 174.74 152.59&#10;  A 0.66 0.66 0.0 0 0 174.07 153.25&#10;  L 174.08 163.47&#10;  A 0.63 0.62 -0.5 0 0 174.72 164.09&#10;  L 181.82 164.01&#10;  Q 182.39 164.01 182.46 163.43&#10;  L 182.59 162.34&#10;  Q 182.80 160.62 183.98 161.88&#10;  C 187.82 165.96 195.70 165.32 199.87 162.91&#10;  Q 203.72 160.69 204.29 156.37&#10;  C 205.33 148.33 196.43 145.72 189.45 143.57&#10;  C 188.46 143.26 187.14 142.28 186.46 141.42&#10;  A 1.38 1.38 0.0 0 1 186.93 139.32&#10;  Q 190.89 137.37 193.95 140.29&#10;  Q 194.40 140.73 194.50 141.35&#10;  L 194.71 142.74&#10;  Q 194.81 143.36 195.42 143.46&#10;  Q 198.92 144.05 202.83 143.80&#10;  A 0.64 0.63 89.1 0 0 203.43 143.17&#10;  L 203.52 133.04&#10;  Q 203.52 132.30 202.79 132.33&#10;  L 196.14 132.54&#10;  A 0.98 0.97 3.6 0 0 195.21 133.35&#10;  L 194.97 134.78&#10;  Q 194.81 135.69 194.26 134.95"/>
<path stroke="#c0c0c0" d="&#10;  M 153.92 134.36&#10;  Q 152.53 132.74 150.96 132.31&#10;  Q 143.67 130.34 138.75 133.97&#10;  C 132.26 138.74 130.27 147.96 132.96 155.17&#10;  Q 136.96 165.88 148.44 164.66&#10;  Q 150.83 164.41 152.79 162.74&#10;  A 0.63 0.62 48.7 0 1 153.66 162.80&#10;  C 154.39 163.62 155.41 164.08 156.51 164.07&#10;  Q 160.00 164.02 163.66 164.00&#10;  A 0.56 0.56 0.0 0 0 164.22 163.44&#10;  L 164.27 153.70&#10;  Q 164.27 153.08 164.74 152.69&#10;  Q 166.62 151.11 165.65 148.32&#10;  Q 165.54 148.02 165.23 148.01&#10;  L 151.69 147.69&#10;  Q 150.79 147.67 150.72 148.56&#10;  L 150.48 151.31&#10;  A 1.12 1.12 0.0 0 0 151.28 152.48&#10;  L 152.39 152.81&#10;  A 1.66 1.66 0.0 0 1 152.96 155.71&#10;  C 144.24 162.62 139.58 145.74 146.74 140.70&#10;  Q 148.48 139.47 150.39 140.05&#10;  Q 153.84 141.11 154.16 145.41&#10;  A 0.32 0.32 0.0 0 0 154.48 145.71&#10;  L 162.44 145.65&#10;  A 0.28 0.27 90.0 0 0 162.71 145.37&#10;  L 162.67 132.93&#10;  Q 162.67 131.98 161.72 131.99&#10;  L 156.53 132.07&#10;  A 1.33 1.32 4.5 0 0 155.25 133.16&#10;  Q 155.14 133.77 154.80 134.31&#10;  Q 154.40 134.92 153.92 134.36"/>
<path stroke="#c0c0c0" d="&#10;  M 222.96 142.23&#10;  L 228.67 163.57&#10;  A 0.62 0.61 82.6 0 0 229.26 164.03&#10;  L 237.97 164.03&#10;  Q 238.85 164.03 239.09 163.18&#10;  Q 242.12 152.55 244.26 142.93&#10;  Q 244.57 141.50 244.57 142.97&#10;  L 244.51 157.08&#10;  Q 244.51 157.66 243.94 157.77&#10;  C 241.36 158.25 242.04 161.33 241.93 163.26&#10;  A 0.74 0.74 0.0 0 0 242.68 164.05&#10;  L 256.02 164.00&#10;  A 0.78 0.77 0.0 0 0 256.80 163.23&#10;  L 256.79 159.21&#10;  Q 256.79 158.53 256.14 158.32&#10;  L 255.03 157.96&#10;  A 1.24 1.23 -80.7 0 1 254.18 156.77&#10;  L 254.34 139.41&#10;  A 0.76 0.74 80.3 0 1 254.81 138.72&#10;  L 256.14 138.20&#10;  Q 256.75 137.97 256.75 137.32&#10;  L 256.76 132.91&#10;  A 0.60 0.60 0.0 0 0 256.16 132.31&#10;  L 239.70 132.32&#10;  A 0.84 0.82 6.6 0 0 238.89 132.95&#10;  L 235.27 147.89&#10;  Q 235.01 148.97 234.73 147.90&#10;  L 231.01 133.37&#10;  A 1.43 1.41 82.4 0 0 229.63 132.30&#10;  L 213.56 132.38&#10;  A 0.56 0.56 0.0 0 0 213.00 132.94&#10;  L 213.03 137.71&#10;  A 0.60 0.60 0.0 0 0 213.45 138.27&#10;  L 214.85 138.71&#10;  Q 215.49 138.91 215.49 139.58&#10;  L 215.50 156.74&#10;  Q 215.50 157.30 215.01 157.54&#10;  L 213.56 158.27&#10;  A 1.00 0.99 -13.9 0 0 213.02 159.15&#10;  L 213.03 163.29&#10;  A 0.76 0.76 0.0 0 0 213.79 164.04&#10;  L 225.25 164.02&#10;  Q 225.76 164.02 225.76 163.50&#10;  L 225.74 159.63&#10;  Q 225.74 158.82 225.17 158.25&#10;  Q 224.62 157.69 223.87 157.58&#10;  A 0.75 0.75 0.0 0 1 223.24 156.83&#10;  Q 223.32 149.64 222.86 142.24&#10;  Q 222.83 141.76 222.96 142.23"/>
</g>
<path fill="#00a388" d="&#10;  M 156.56 111.41&#10;  L 101.67 111.12&#10;  Q 104.44 94.86 107.55 85.99&#10;  Q 110.18 78.49 112.87 70.76&#10;  A 0.43 0.43 0.0 0 0 112.78 70.35&#10;  L 112.27 69.78&#10;  A 0.27 0.26 -51.6 0 0 111.84 69.83&#10;  Q 101.25 89.49 95.36 111.22&#10;  L 60.72 111.15&#10;  Q 61.84 83.97 75.81 61.74&#10;  C 93.68 33.32 122.36 15.64 152.44 2.11&#10;  A 1.98 1.98 0.0 0 1 155.19 3.52&#10;  Q 155.42 4.69 155.26 5.99&#10;  Q 152.22 31.03 153.81 55.67&#10;  Q 154.66 68.91 157.26 80.92&#10;  C 159.61 91.76 159.66 101.18 156.56 111.41&#10;  Z"/>
<path fill="#00a388" d="&#10;  M 335.18 111.51&#10;  L 236.37 111.47&#10;  Q 221.93 95.11 221.16 73.49&#10;  Q 220.87 65.35 221.95 56.85&#10;  A 1.20 1.19 9.3 0 0 220.99 55.53&#10;  C 205.18 52.44 191.56 56.22 178.59 65.13&#10;  Q 177.33 65.99 176.01 65.38&#10;  A 1.91 1.91 0.0 0 1 175.13 62.73&#10;  Q 176.73 59.81 179.24 57.53&#10;  C 192.05 45.91 208.11 42.15 224.42 45.65&#10;  C 247.43 50.60 267.67 65.87 284.81 83.00&#10;  Q 290.17 88.36 294.95 93.23&#10;  A 0.33 0.33 0.0 0 0 295.40 93.25&#10;  L 295.61 93.08&#10;  Q 296.04 92.72 295.72 92.26&#10;  Q 288.58 81.86 278.49 70.71&#10;  C 266.38 57.32 251.40 45.45 234.46 39.27&#10;  Q 231.74 38.28 229.35 37.20&#10;  A 1.78 1.77 30.5 0 1 228.65 34.52&#10;  Q 230.60 31.89 233.27 30.04&#10;  Q 253.95 15.66 277.91 25.98&#10;  Q 290.28 31.31 301.06 41.54&#10;  C 318.57 58.18 329.01 79.69 333.58 103.38&#10;  Q 334.35 107.37 335.18 111.51&#10;  Z"/>
<path fill="#858585" d="&#10;  M 60.72 111.15&#10;  L 95.36 111.22&#10;  Q 98.52 112.74 101.67 111.12&#10;  L 156.56 111.41&#10;  Q 157.71 112.00 159.53 111.83&#10;  Q 162.06 111.60 162.47 111.60&#10;  Q 192.92 111.65 223.37 111.59&#10;  Q 223.47 111.59 229.62 111.81&#10;  Q 233.09 111.93 236.37 111.47&#10;  L 335.18 111.51&#10;  L 356.60 111.69&#10;  A 0.81 0.80 0.4 0 1 357.40 112.49&#10;  L 357.41 173.99&#10;  Q 357.41 175.32 356.08 175.32&#10;  L 275.73 175.39&#10;  L 267.67 175.44&#10;  Q 203.67 175.15 139.80 175.43&#10;  Q 139.69 175.43 134.20 175.18&#10;  Q 130.70 175.01 127.22 175.71&#10;  Q 121.34 175.05 114.85 175.93&#10;  Q 113.93 175.30 113.00 175.30&#10;  Q 70.50 175.44 27.75 175.24&#10;  A 1.01 1.00 0.6 0 1 26.75 174.23&#10;  Q 26.83 146.26 26.76 117.15&#10;  Q 26.75 114.72 27.13 112.38&#10;  Q 27.22 111.87 27.73 111.86&#10;  Q 44.83 111.37 59.74 111.67&#10;  Q 60.91 111.69 60.72 111.15&#10;  Z&#10;  M 194.26 134.95&#10;  C 191.61 131.37 185.41 131.08 181.67 132.26&#10;  C 175.60 134.18 172.97 140.66 176.02 146.20&#10;  C 178.47 150.67 186.54 152.36 191.17 153.71&#10;  A 1.42 1.42 0.0 0 1 191.77 156.08&#10;  Q 190.58 157.25 188.57 157.25&#10;  Q 184.29 157.23 183.17 153.85&#10;  A 1.64 1.63 -8.5 0 0 181.64 152.72&#10;  L 174.74 152.59&#10;  A 0.66 0.66 0.0 0 0 174.07 153.25&#10;  L 174.08 163.47&#10;  A 0.63 0.62 -0.5 0 0 174.72 164.09&#10;  L 181.82 164.01&#10;  Q 182.39 164.01 182.46 163.43&#10;  L 182.59 162.34&#10;  Q 182.80 160.62 183.98 161.88&#10;  C 187.82 165.96 195.70 165.32 199.87 162.91&#10;  Q 203.72 160.69 204.29 156.37&#10;  C 205.33 148.33 196.43 145.72 189.45 143.57&#10;  C 188.46 143.26 187.14 142.28 186.46 141.42&#10;  A 1.38 1.38 0.0 0 1 186.93 139.32&#10;  Q 190.89 137.37 193.95 140.29&#10;  Q 194.40 140.73 194.50 141.35&#10;  L 194.71 142.74&#10;  Q 194.81 143.36 195.42 143.46&#10;  Q 198.92 144.05 202.83 143.80&#10;  A 0.64 0.63 89.1 0 0 203.43 143.17&#10;  L 203.52 133.04&#10;  Q 203.52 132.30 202.79 132.33&#10;  L 196.14 132.54&#10;  A 0.98 0.97 3.6 0 0 195.21 133.35&#10;  L 194.97 134.78&#10;  Q 194.81 135.69 194.26 134.95&#10;  Z&#10;  M 153.92 134.36&#10;  Q 152.53 132.74 150.96 132.31&#10;  Q 143.67 130.34 138.75 133.97&#10;  C 132.26 138.74 130.27 147.96 132.96 155.17&#10;  Q 136.96 165.88 148.44 164.66&#10;  Q 150.83 164.41 152.79 162.74&#10;  A 0.63 0.62 48.7 0 1 153.66 162.80&#10;  C 154.39 163.62 155.41 164.08 156.51 164.07&#10;  Q 160.00 164.02 163.66 164.00&#10;  A 0.56 0.56 0.0 0 0 164.22 163.44&#10;  L 164.27 153.70&#10;  Q 164.27 153.08 164.74 152.69&#10;  Q 166.62 151.11 165.65 148.32&#10;  Q 165.54 148.02 165.23 148.01&#10;  L 151.69 147.69&#10;  Q 150.79 147.67 150.72 148.56&#10;  L 150.48 151.31&#10;  A 1.12 1.12 0.0 0 0 151.28 152.48&#10;  L 152.39 152.81&#10;  A 1.66 1.66 0.0 0 1 152.96 155.71&#10;  C 144.24 162.62 139.58 145.74 146.74 140.70&#10;  Q 148.48 139.47 150.39 140.05&#10;  Q 153.84 141.11 154.16 145.41&#10;  A 0.32 0.32 0.0 0 0 154.48 145.71&#10;  L 162.44 145.65&#10;  A 0.28 0.27 90.0 0 0 162.71 145.37&#10;  L 162.67 132.93&#10;  Q 162.67 131.98 161.72 131.99&#10;  L 156.53 132.07&#10;  A 1.33 1.32 4.5 0 0 155.25 133.16&#10;  Q 155.14 133.77 154.80 134.31&#10;  Q 154.40 134.92 153.92 134.36&#10;  Z&#10;  M 222.96 142.23&#10;  L 228.67 163.57&#10;  A 0.62 0.61 82.6 0 0 229.26 164.03&#10;  L 237.97 164.03&#10;  Q 238.85 164.03 239.09 163.18&#10;  Q 242.12 152.55 244.26 142.93&#10;  Q 244.57 141.50 244.57 142.97&#10;  L 244.51 157.08&#10;  Q 244.51 157.66 243.94 157.77&#10;  C 241.36 158.25 242.04 161.33 241.93 163.26&#10;  A 0.74 0.74 0.0 0 0 242.68 164.05&#10;  L 256.02 164.00&#10;  A 0.78 0.77 0.0 0 0 256.80 163.23&#10;  L 256.79 159.21&#10;  Q 256.79 158.53 256.14 158.32&#10;  L 255.03 157.96&#10;  A 1.24 1.23 -80.7 0 1 254.18 156.77&#10;  L 254.34 139.41&#10;  A 0.76 0.74 80.3 0 1 254.81 138.72&#10;  L 256.14 138.20&#10;  Q 256.75 137.97 256.75 137.32&#10;  L 256.76 132.91&#10;  A 0.60 0.60 0.0 0 0 256.16 132.31&#10;  L 239.70 132.32&#10;  A 0.84 0.82 6.6 0 0 238.89 132.95&#10;  L 235.27 147.89&#10;  Q 235.01 148.97 234.73 147.90&#10;  L 231.01 133.37&#10;  A 1.43 1.41 82.4 0 0 229.63 132.30&#10;  L 213.56 132.38&#10;  A 0.56 0.56 0.0 0 0 213.00 132.94&#10;  L 213.03 137.71&#10;  A 0.60 0.60 0.0 0 0 213.45 138.27&#10;  L 214.85 138.71&#10;  Q 215.49 138.91 215.49 139.58&#10;  L 215.50 156.74&#10;  Q 215.50 157.30 215.01 157.54&#10;  L 213.56 158.27&#10;  A 1.00 0.99 -13.9 0 0 213.02 159.15&#10;  L 213.03 163.29&#10;  A 0.76 0.76 0.0 0 0 213.79 164.04&#10;  L 225.25 164.02&#10;  Q 225.76 164.02 225.76 163.50&#10;  L 225.74 159.63&#10;  Q 225.74 158.82 225.17 158.25&#10;  Q 224.62 157.69 223.87 157.58&#10;  A 0.75 0.75 0.0 0 1 223.24 156.83&#10;  Q 223.32 149.64 222.86 142.24&#10;  Q 222.83 141.76 222.96 142.23&#10;  Z"/>
<path fill="#fbfbfb" d="&#10;  M 194.97 134.78&#10;  L 195.21 133.35&#10;  A 0.98 0.97 3.6 0 1 196.14 132.54&#10;  L 202.79 132.33&#10;  Q 203.52 132.30 203.52 133.04&#10;  L 203.43 143.17&#10;  A 0.64 0.63 89.1 0 1 202.83 143.80&#10;  Q 198.92 144.05 195.42 143.46&#10;  Q 194.81 143.36 194.71 142.74&#10;  L 194.50 141.35&#10;  Q 194.40 140.73 193.95 140.29&#10;  Q 190.89 137.37 186.93 139.32&#10;  A 1.38 1.38 0.0 0 0 186.46 141.42&#10;  C 187.14 142.28 188.46 143.26 189.45 143.57&#10;  C 196.43 145.72 205.33 148.33 204.29 156.37&#10;  Q 203.72 160.69 199.87 162.91&#10;  C 195.70 165.32 187.82 165.96 183.98 161.88&#10;  Q 182.80 160.62 182.59 162.34&#10;  L 182.46 163.43&#10;  Q 182.39 164.01 181.82 164.01&#10;  L 174.72 164.09&#10;  A 0.63 0.62 -0.5 0 1 174.08 163.47&#10;  L 174.07 153.25&#10;  A 0.66 0.66 0.0 0 1 174.74 152.59&#10;  L 181.64 152.72&#10;  A 1.64 1.63 -8.5 0 1 183.17 153.85&#10;  Q 184.29 157.23 188.57 157.25&#10;  Q 190.58 157.25 191.77 156.08&#10;  A 1.42 1.42 0.0 0 0 191.17 153.71&#10;  C 186.54 152.36 178.47 150.67 176.02 146.20&#10;  C 172.97 140.66 175.60 134.18 181.67 132.26&#10;  C 185.41 131.08 191.61 131.37 194.26 134.95&#10;  Q 194.81 135.69 194.97 134.78&#10;  Z"/>
<path fill="#fbfbfb" d="&#10;  M 154.80 134.31&#10;  Q 155.14 133.77 155.25 133.16&#10;  A 1.33 1.32 4.5 0 1 156.53 132.07&#10;  L 161.72 131.99&#10;  Q 162.67 131.98 162.67 132.93&#10;  L 162.71 145.37&#10;  A 0.28 0.27 90.0 0 1 162.44 145.65&#10;  L 154.48 145.71&#10;  A 0.32 0.32 0.0 0 1 154.16 145.41&#10;  Q 153.84 141.11 150.39 140.05&#10;  Q 148.48 139.47 146.74 140.70&#10;  C 139.58 145.74 144.24 162.62 152.96 155.71&#10;  A 1.66 1.66 0.0 0 0 152.39 152.81&#10;  L 151.28 152.48&#10;  A 1.12 1.12 0.0 0 1 150.48 151.31&#10;  L 150.72 148.56&#10;  Q 150.79 147.67 151.69 147.69&#10;  L 165.23 148.01&#10;  Q 165.54 148.02 165.65 148.32&#10;  Q 166.62 151.11 164.74 152.69&#10;  Q 164.27 153.08 164.27 153.70&#10;  L 164.22 163.44&#10;  A 0.56 0.56 0.0 0 1 163.66 164.00&#10;  Q 160.00 164.02 156.51 164.07&#10;  C 155.41 164.08 154.39 163.62 153.66 162.80&#10;  A 0.63 0.62 48.7 0 0 152.79 162.74&#10;  Q 150.83 164.41 148.44 164.66&#10;  Q 136.96 165.88 132.96 155.17&#10;  C 130.27 147.96 132.26 138.74 138.75 133.97&#10;  Q 143.67 130.34 150.96 132.31&#10;  Q 152.53 132.74 153.92 134.36&#10;  Q 154.40 134.92 154.80 134.31&#10;  Z"/>
<path fill="#fbfbfb" d="&#10;  M 222.86 142.24&#10;  Q 223.32 149.64 223.24 156.83&#10;  A 0.75 0.75 0.0 0 0 223.87 157.58&#10;  Q 224.62 157.69 225.17 158.25&#10;  Q 225.74 158.82 225.74 159.63&#10;  L 225.76 163.50&#10;  Q 225.76 164.02 225.25 164.02&#10;  L 213.79 164.04&#10;  A 0.76 0.76 0.0 0 1 213.03 163.29&#10;  L 213.02 159.15&#10;  A 1.00 0.99 -13.9 0 1 213.56 158.27&#10;  L 215.01 157.54&#10;  Q 215.50 157.30 215.50 156.74&#10;  L 215.49 139.58&#10;  Q 215.49 138.91 214.85 138.71&#10;  L 213.45 138.27&#10;  A 0.60 0.60 0.0 0 1 213.03 137.71&#10;  L 213.00 132.94&#10;  A 0.56 0.56 0.0 0 1 213.56 132.38&#10;  L 229.63 132.30&#10;  A 1.43 1.41 82.4 0 1 231.01 133.37&#10;  L 234.73 147.90&#10;  Q 235.01 148.97 235.27 147.89&#10;  L 238.89 132.95&#10;  A 0.84 0.82 6.6 0 1 239.70 132.32&#10;  L 256.16 132.31&#10;  A 0.60 0.60 0.0 0 1 256.76 132.91&#10;  L 256.75 137.32&#10;  Q 256.75 137.97 256.14 138.20&#10;  L 254.81 138.72&#10;  A 0.76 0.74 80.3 0 0 254.34 139.41&#10;  L 254.18 156.77&#10;  A 1.24 1.23 -80.7 0 0 255.03 157.96&#10;  L 256.14 158.32&#10;  Q 256.79 158.53 256.79 159.21&#10;  L 256.80 163.23&#10;  A 0.78 0.77 0.0 0 1 256.02 164.00&#10;  L 242.68 164.05&#10;  A 0.74 0.74 0.0 0 1 241.93 163.26&#10;  C 242.04 161.33 241.36 158.25 243.94 157.77&#10;  Q 244.51 157.66 244.51 157.08&#10;  L 244.57 142.97&#10;  Q 244.57 141.50 244.26 142.93&#10;  Q 242.12 152.55 239.09 163.18&#10;  Q 238.85 164.03 237.97 164.03&#10;  L 229.26 164.03&#10;  A 0.62 0.61 82.6 0 1 228.67 163.57&#10;  L 222.96 142.23&#10;  Q 222.83 141.76 222.86 142.24&#10;  Z"/>
<path fill="#858585" d="&#10;  M 366.52 178.86&#10;  L 366.59 135.32&#10;  A 1.24 1.24 0.0 0 1 367.79 134.08&#10;  Q 374.72 133.86 381.63 134.27&#10;  A 0.76 0.76 0.0 0 1 382.28 135.32&#10;  Q 376.36 149.45 371.86 161.36&#10;  Q 371.15 163.23 371.94 165.18&#10;  Q 377.71 179.41 382.22 191.05&#10;  A 0.49 0.49 0.0 0 1 381.76 191.72&#10;  L 348.52 191.92&#10;  Q 346.31 191.93 348.23 190.84&#10;  Q 357.59 185.49 365.89 180.02&#10;  Q 366.52 179.61 366.52 178.86&#10;  Z"/>
<path fill="#858585" d="&#10;  M 18.15 179.76&#10;  Q 18.56 180.36 19.21 180.74&#10;  Q 27.78 185.76 36.19 191.30&#10;  Q 36.86 191.75 36.05 191.75&#10;  L 2.55 191.76&#10;  A 0.66 0.66 0.0 0 1 1.94 190.85&#10;  Q 7.19 178.13 12.20 165.51&#10;  Q 13.15 163.13 12.17 160.66&#10;  Q 7.02 147.60 1.98 135.28&#10;  A 0.65 0.65 0.0 0 1 2.54 134.38&#10;  Q 9.38 133.92 16.82 134.40&#10;  A 1.11 1.11 0.0 0 1 17.86 135.51&#10;  L 17.90 178.99&#10;  A 1.43 1.41 27.5 0 0 18.15 179.76&#10;  Z"/>
<path fill="#00a388" d="&#10;  M 127.22 175.71&#10;  C 131.48 180.41 136.48 183.31 141.85 186.24&#10;  A 1.99 1.98 22.3 0 1 142.81 188.52&#10;  Q 142.15 190.92 139.50 190.32&#10;  Q 125.38 187.11 114.85 175.93&#10;  Q 121.34 175.05 127.22 175.71&#10;  Z"/>
<path fill="#00a388" d="&#10;  M 275.73 175.39&#10;  C 271.93 213.23 230.48 229.15 198.89 235.22&#10;  Q 189.53 237.03 180.10 238.20&#10;  Q 175.63 238.76 180.05 239.63&#10;  Q 180.91 239.80 183.74 239.65&#10;  Q 194.31 239.12 203.80 238.33&#10;  C 224.41 236.61 245.46 229.90 262.17 217.82&#10;  C 263.71 216.71 266.03 217.17 266.25 219.35&#10;  Q 267.39 230.65 264.06 239.79&#10;  C 259.03 253.65 247.78 263.31 234.07 268.52&#10;  Q 211.55 277.07 190.15 275.18&#10;  Q 168.32 273.25 147.68 263.83&#10;  C 131.13 256.29 117.03 246.49 102.34 235.17&#10;  C 100.89 234.05 99.39 231.84 101.94 230.67&#10;  C 106.80 228.45 112.03 226.78 117.01 224.60&#10;  Q 134.08 217.10 151.28 206.55&#10;  Q 159.07 201.78 165.31 196.65&#10;  C 178.20 186.06 189.99 178.93 207.12 179.67&#10;  Q 217.97 180.13 226.85 183.80&#10;  Q 240.32 189.35 250.87 199.58&#10;  A 1.59 1.58 46.2 0 0 253.03 199.63&#10;  C 260.49 193.00 264.79 184.98 267.67 175.44&#10;  L 275.73 175.39&#10;  Z"/>
<path fill="#858585" d="&#10;  M 43.68 186.71&#10;  L 35.07 181.72&#10;  Q 34.35 181.30 35.19 181.31&#10;  L 43.58 181.43&#10;  A 0.62 0.62 0.0 0 1 44.19 182.08&#10;  L 43.99 186.54&#10;  A 0.21 0.21 0.0 0 1 43.68 186.71&#10;  Z"/>
<path fill="#858585" d="&#10;  M 340.33 181.39&#10;  L 349.19 181.17&#10;  A 0.31 0.31 0.0 0 1 349.35 181.75&#10;  L 340.53 186.97&#10;  A 0.31 0.31 0.0 0 1 340.07 186.70&#10;  L 340.03 181.70&#10;  A 0.31 0.31 0.0 0 1 340.33 181.39&#10;  Z"/>
<path fill="#040304" d="&#10;  M 136.62 322.88&#10;  A 1.24 1.23 35.2 0 0 134.86 323.18&#10;  Q 133.57 325.09 131.37 324.24&#10;  Q 130.73 324.00 130.75 323.32&#10;  L 130.86 318.74&#10;  Q 130.88 317.85 131.76 317.88&#10;  L 133.94 317.94&#10;  A 1.23 1.23 0.0 0 1 134.94 318.51&#10;  Q 136.47 320.85 139.43 320.40&#10;  Q 140.43 320.25 140.67 319.29&#10;  A 0.96 0.96 0.0 0 0 140.09 318.17&#10;  C 137.56 317.17 134.28 316.71 132.42 314.70&#10;  C 130.34 312.46 131.04 308.77 133.53 307.33&#10;  Q 136.95 305.37 140.75 307.58&#10;  Q 141.23 307.87 141.79 307.78&#10;  Q 142.83 307.63 143.76 307.00&#10;  A 1.89 1.89 0.0 0 1 146.71 308.73&#10;  L 146.49 311.23&#10;  A 1.92 1.92 0.0 0 1 143.34 312.53&#10;  C 141.82 311.26 140.20 309.51 138.06 310.33&#10;  A 1.39 1.39 0.0 0 0 138.05 312.92&#10;  C 140.43 313.85 143.06 314.44 145.16 315.87&#10;  C 147.86 317.71 146.98 322.20 144.08 323.41&#10;  Q 139.77 325.20 136.62 322.88&#10;  Z"/>
<path fill="#040304" d="&#10;  M 78.37 320.94&#10;  Q 80.68 321.65 82.35 319.78&#10;  Q 82.70 319.39 83.20 319.24&#10;  C 86.19 318.34 86.19 321.41 85.96 323.29&#10;  A 1.30 1.30 0.0 0 1 84.67 324.43&#10;  L 72.64 324.40&#10;  A 1.43 1.42 17.2 0 1 71.46 322.17&#10;  C 73.17 319.67 72.53 315.79 72.53 312.87&#10;  C 72.52 311.14 71.69 309.85 71.23 308.24&#10;  A 1.04 1.04 0.0 0 1 72.22 306.92&#10;  L 84.64 306.79&#10;  A 1.40 1.39 3.9 0 1 86.04 308.38&#10;  L 85.65 311.21&#10;  A 1.48 1.48 0.0 0 1 83.51 312.32&#10;  C 81.60 311.35 81.13 309.38 78.37 310.34&#10;  Q 77.61 310.60 77.47 311.40&#10;  C 77.05 313.94 80.38 313.39 81.75 313.56&#10;  Q 82.61 313.66 82.58 314.52&#10;  L 82.54 315.36&#10;  Q 82.50 316.48 81.39 316.54&#10;  L 78.58 316.70&#10;  Q 77.82 316.75 77.63 317.48&#10;  Q 77.31 318.71 77.67 320.20&#10;  Q 77.81 320.77 78.37 320.94&#10;  Z"/>
<path fill="#040304" d="&#10;  M 94.74 313.20&#10;  Q 96.26 313.60 97.98 313.53&#10;  Q 99.03 313.48 99.01 314.53&#10;  L 99.00 315.51&#10;  A 1.06 1.06 0.0 0 1 97.99 316.56&#10;  L 95.19 316.70&#10;  Q 93.89 316.77 93.93 318.06&#10;  L 93.96 319.47&#10;  Q 93.99 320.80 95.29 321.10&#10;  C 98.09 321.73 98.13 319.24 100.29 319.08&#10;  C 103.03 318.88 102.71 322.05 102.27 323.74&#10;  Q 102.10 324.41 101.42 324.40&#10;  L 88.79 324.39&#10;  A 1.26 1.25 -75.0 0 1 87.71 322.51&#10;  C 89.67 319.12 89.30 316.21 89.23 312.40&#10;  C 89.19 310.68 88.12 309.48 87.35 308.05&#10;  A 0.76 0.76 0.0 0 1 88.02 306.93&#10;  L 100.96 306.89&#10;  A 1.45 1.45 0.0 0 1 102.40 308.46&#10;  L 102.16 311.17&#10;  A 1.60 1.60 0.0 0 1 99.25 311.95&#10;  Q 97.54 309.51 94.66 310.44&#10;  A 1.44 1.44 0.0 0 0 94.74 313.20&#10;  Z"/>
<path fill="#040304" d="&#10;  M 117.51 314.30&#10;  Q 117.79 311.61 115.74 309.22&#10;  A 1.37 1.37 0.0 0 1 116.72 306.96&#10;  L 121.36 306.77&#10;  A 1.47 1.47 0.0 0 1 122.64 309.05&#10;  L 121.32 311.04&#10;  Q 121.03 311.48 121.03 312.01&#10;  L 120.98 323.48&#10;  Q 120.98 323.98 120.51 324.14&#10;  Q 116.41 325.50 114.44 322.08&#10;  Q 112.48 318.67 110.55 315.83&#10;  Q 109.89 314.87 109.54 315.98&#10;  Q 109.16 317.21 109.29 318.69&#10;  Q 109.42 320.15 110.38 321.27&#10;  Q 110.70 321.66 110.99 322.07&#10;  Q 112.45 324.15 109.93 324.37&#10;  Q 107.20 324.61 104.74 324.31&#10;  A 1.10 1.10 0.0 0 1 104.01 322.53&#10;  C 106.03 319.98 105.56 315.58 105.52 312.35&#10;  C 105.50 310.90 104.64 309.76 103.90 308.60&#10;  A 1.08 1.08 0.0 0 1 104.81 306.94&#10;  L 109.97 306.96&#10;  A 1.74 1.73 -15.4 0 1 111.43 307.78&#10;  L 115.67 314.72&#10;  A 1.00 1.00 0.0 0 0 117.51 314.30&#10;  Z"/>
<path fill="#040304" d="&#10;  M 155.76 316.84&#10;  A 1.31 1.30 84.5 0 0 154.51 318.37&#10;  Q 154.91 320.67 156.22 322.81&#10;  A 0.97 0.97 0.0 0 1 155.43 324.28&#10;  L 149.68 324.48&#10;  A 1.24 1.24 0.0 0 1 148.46 322.84&#10;  C 148.91 321.53 149.81 320.43 149.79 319.00&#10;  Q 149.75 315.77 149.81 312.41&#10;  C 149.84 310.94 149.12 309.84 148.46 308.59&#10;  A 1.11 1.11 0.0 0 1 149.39 306.97&#10;  Q 154.43 306.70 158.44 307.14&#10;  Q 163.61 307.71 162.76 312.81&#10;  C 162.19 316.30 158.85 316.78 155.76 316.84&#10;  Z&#10;  M 155.7080 314.3926&#10;  A 2.23 2.06 107.0 0 0 158.3300 312.8623&#10;  A 2.23 2.06 107.0 0 0 157.0120 310.1274&#10;  A 2.23 2.06 107.0 0 0 154.3900 311.6577&#10;  A 2.23 2.06 107.0 0 0 155.7080 314.3926&#10;  Z"/>
<path fill="#040304" d="&#10;  M 173.00 318.75&#10;  L 169.20 318.61&#10;  A 1.23 1.23 0.0 0 0 168.12 320.51&#10;  L 169.74 323.00&#10;  A 0.91 0.91 0.0 0 1 168.98 324.40&#10;  L 163.05 324.42&#10;  A 1.42 1.42 0.0 0 1 161.94 322.11&#10;  Q 162.54 321.36 163.20 320.69&#10;  C 164.89 318.96 165.80 314.31 166.35 311.88&#10;  C 166.66 310.52 166.13 309.26 165.91 307.92&#10;  A 0.83 0.83 0.0 0 1 166.71 306.96&#10;  L 173.99 306.84&#10;  Q 175.34 306.82 175.71 308.12&#10;  Q 177.11 313.04 178.60 318.09&#10;  C 179.11 319.84 180.08 320.82 181.24 322.10&#10;  A 1.36 1.36 0.0 0 1 180.29 324.37&#10;  C 178.29 324.46 173.39 324.93 171.77 324.01&#10;  A 1.03 1.03 0.0 0 1 171.62 322.32&#10;  L 173.64 320.64&#10;  A 1.07 1.07 0.0 0 0 173.00 318.75&#10;  Z&#10;  M 171.56 312.02&#10;  A 0.74 0.74 0.0 0 0 170.14 312.01&#10;  L 169.19 315.17&#10;  A 0.74 0.74 0.0 0 0 169.51 316.02&#10;  L 170.40 316.57&#10;  A 0.74 0.74 0.0 0 0 171.22 316.54&#10;  L 172.15 315.87&#10;  A 0.74 0.74 0.0 0 0 172.44 315.07&#10;  L 171.56 312.02&#10;  Z"/>
<path fill="#040304" d="&#10;  M 192.61 311.25&#10;  C 191.16 310.13 189.35 310.91 188.69 312.48&#10;  C 186.90 316.70 189.05 323.17 194.90 319.06&#10;  Q 196.54 317.91 197.39 319.72&#10;  L 197.51 319.99&#10;  Q 198.21 321.47 196.85 322.39&#10;  C 191.74 325.84 184.00 324.55 182.66 317.69&#10;  C 181.56 312.05 186.11 304.80 192.64 307.70&#10;  Q 193.16 307.94 193.70 307.73&#10;  L 195.63 306.97&#10;  A 1.77 1.76 -10.3 0 1 198.04 308.63&#10;  L 197.99 312.54&#10;  A 1.45 1.44 -1.7 0 1 196.64 313.97&#10;  C 194.17 314.13 194.11 312.42 192.61 311.25&#10;  Z"/>
<path fill="#040304" d="&#10;  M 206.67 317.37&#10;  L 206.48 318.84&#10;  A 2.18 2.17 -20.5 0 0 210.26 320.56&#10;  Q 211.55 319.12 213.60 319.10&#10;  Q 214.75 319.09 214.76 320.24&#10;  L 214.78 323.46&#10;  Q 214.79 324.45 213.79 324.45&#10;  L 201.22 324.46&#10;  A 1.33 1.33 0.0 0 1 200.13 322.38&#10;  C 201.93 319.76 201.53 315.66 201.50 312.57&#10;  C 201.48 311.00 200.69 309.81 200.08 308.44&#10;  A 1.07 1.07 0.0 0 1 201.05 306.93&#10;  L 213.77 306.86&#10;  Q 214.75 306.85 214.78 307.83&#10;  Q 214.83 309.51 214.64 311.02&#10;  Q 214.38 313.03 212.32 312.41&#10;  Q 211.83 312.27 211.55 311.84&#10;  Q 210.05 309.55 207.32 310.33&#10;  Q 206.72 310.50 206.48 311.08&#10;  Q 206.07 312.09 206.74 312.97&#10;  A 1.12 1.10 72.6 0 0 207.55 313.40&#10;  L 210.36 313.58&#10;  Q 211.34 313.64 211.31 314.61&#10;  L 211.29 315.35&#10;  Q 211.26 316.47 210.15 316.54&#10;  L 207.38 316.71&#10;  Q 206.75 316.74 206.67 317.37&#10;  Z"/>
<path fill="#040304" d="&#10;  M 235.61 313.81&#10;  Q 236.27 311.18 236.49 308.65&#10;  Q 236.63 307.03 238.25 306.99&#10;  L 245.17 306.80&#10;  A 1.42 1.42 0.0 0 1 246.34 309.08&#10;  C 245.54 310.13 244.71 311.13 244.74 312.51&#10;  C 244.80 315.75 243.94 319.81 246.29 322.42&#10;  A 1.02 1.01 32.6 0 1 246.51 323.40&#10;  Q 246.23 324.30 245.39 324.35&#10;  Q 242.50 324.49 239.61 324.39&#10;  A 1.23 1.23 0.0 0 1 238.63 322.48&#10;  C 239.39 321.35 240.29 320.37 240.32 318.94&#10;  Q 240.39 316.24 240.52 313.55&#10;  A 0.71 0.70 8.1 0 0 239.98 312.84&#10;  Q 239.21 312.64 238.98 313.44&#10;  Q 237.57 318.28 236.70 322.83&#10;  A 1.90 1.88 -2.3 0 1 235.33 324.30&#10;  Q 231.52 325.35 230.66 321.75&#10;  Q 229.85 318.34 229.20 315.15&#10;  Q 229.12 314.73 228.77 314.45&#10;  Q 228.66 314.35 228.52 314.30&#10;  Q 227.92 314.08 227.80 314.71&#10;  Q 226.97 319.48 229.07 322.75&#10;  A 0.98 0.98 0.0 0 1 228.39 324.24&#10;  Q 225.73 324.63 223.37 324.28&#10;  A 1.12 1.12 0.0 0 1 222.61 322.54&#10;  C 224.86 319.21 224.05 316.19 224.05 312.49&#10;  C 224.05 311.05 223.23 310.09 222.62 308.86&#10;  A 1.31 1.30 76.6 0 1 223.77 306.98&#10;  L 230.48 306.89&#10;  Q 232.02 306.87 232.26 308.39&#10;  Q 232.71 311.29 233.63 313.90&#10;  Q 234.77 317.13 235.61 313.81&#10;  Z"/>
<path fill="#040304" d="&#10;  M 273.77 316.86&#10;  Q 273.43 318.48 274.19 320.26&#10;  C 274.65 321.33 275.63 321.74 275.92 322.96&#10;  Q 276.24 324.31 274.85 324.40&#10;  Q 272.24 324.56 269.64 324.23&#10;  A 1.23 1.23 0.0 0 1 268.79 322.30&#10;  C 270.78 319.46 270.17 315.72 270.18 312.48&#10;  C 270.18 311.05 269.14 310.11 268.57 308.87&#10;  A 1.31 1.31 0.0 0 1 269.76 307.01&#10;  C 272.33 306.99 275.53 306.04 276.94 309.02&#10;  Q 278.42 312.14 280.16 314.32&#10;  Q 281.40 315.88 281.89 313.94&#10;  Q 282.45 311.74 280.34 309.06&#10;  A 1.35 1.34 73.6 0 1 281.52 306.89&#10;  Q 283.76 307.11 286.14 306.75&#10;  A 1.45 1.45 0.0 0 1 287.48 309.10&#10;  L 285.92 311.01&#10;  Q 285.55 311.46 285.55 312.05&#10;  L 285.74 323.63&#10;  A 0.84 0.84 0.0 0 1 284.86 324.48&#10;  L 281.07 324.33&#10;  A 0.83 0.82 -16.1 0 1 280.44 323.99&#10;  Q 278.07 320.81 275.89 316.58&#10;  Q 274.44 313.76 273.77 316.86&#10;  Z"/>
<path fill="#040304" d="&#10;  M 300.35 319.06&#10;  Q 298.37 318.58 295.70 318.80&#10;  A 1.10 1.10 0.0 0 0 294.90 320.55&#10;  L 296.54 322.76&#10;  A 1.02 1.02 0.0 0 1 295.72 324.39&#10;  L 289.59 324.38&#10;  A 1.32 1.32 0.0 0 1 288.61 322.18&#10;  C 289.60 321.07 290.93 320.25 291.29 318.72&#10;  Q 292.14 315.18 293.33 311.93&#10;  C 293.74 310.79 293.40 309.79 292.83 308.80&#10;  A 1.26 1.26 0.0 0 1 293.94 306.91&#10;  L 301.23 306.98&#10;  A 1.44 1.44 0.0 0 1 302.60 308.03&#10;  Q 304.02 313.22 305.63 318.32&#10;  C 306.17 320.05 307.41 321.16 308.27 322.73&#10;  A 1.04 1.04 0.0 0 1 307.47 324.26&#10;  Q 303.12 324.77 299.00 324.20&#10;  A 1.12 1.12 0.0 0 1 298.47 322.20&#10;  L 300.65 320.53&#10;  A 0.83 0.83 0.0 0 0 300.35 319.06&#10;  Z&#10;  M 298.53 312.62&#10;  A 0.91 0.91 0.0 0 0 296.79 312.53&#10;  L 296.03 314.65&#10;  A 0.91 0.91 0.0 0 0 296.08 315.37&#10;  L 296.43 316.05&#10;  A 0.91 0.91 0.0 0 0 297.55 316.50&#10;  L 298.54 316.14&#10;  A 0.91 0.91 0.0 0 0 299.12 315.07&#10;  L 298.53 312.62&#10;  Z"/>
<path fill="#040304" d="&#10;  M 336.79 321.28&#10;  Q 338.89 321.39 340.52 319.67&#10;  A 1.99 1.99 0.0 0 1 343.94 320.81&#10;  Q 344.10 322.14 343.70 323.66&#10;  A 0.99 0.98 7.1 0 1 342.74 324.40&#10;  L 330.53 324.41&#10;  A 1.28 1.27 -74.9 0 1 329.43 322.49&#10;  C 330.11 321.32 330.74 320.15 330.73 318.76&#10;  C 330.72 316.53 331.18 312.71 330.19 310.70&#10;  Q 329.63 309.56 329.24 308.35&#10;  A 1.07 1.07 0.0 0 1 330.24 306.96&#10;  L 342.37 306.81&#10;  A 1.61 1.61 0.0 0 1 343.98 308.63&#10;  L 343.66 311.19&#10;  A 1.62 1.62 0.0 0 1 340.78 311.97&#10;  Q 339.16 309.88 336.76 310.13&#10;  Q 335.38 310.27 335.43 311.65&#10;  L 335.44 312.04&#10;  Q 335.49 313.40 336.85 313.43&#10;  L 339.28 313.47&#10;  A 1.18 1.17 75.4 0 1 340.25 314.04&#10;  Q 340.82 315.01 340.29 315.98&#10;  Q 339.94 316.60 339.23 316.62&#10;  L 336.75 316.71&#10;  Q 335.78 316.75 335.62 317.70&#10;  Q 335.40 318.99 335.63 320.26&#10;  Q 335.81 321.23 336.79 321.28&#10;  Z"/>
<path fill="#040304" d="&#10;  M 41.98 311.40&#10;  C 36.75 312.90 37.51 320.84 43.44 320.51&#10;  A 1.33 1.32 67.7 0 0 44.36 318.31&#10;  L 43.55 317.40&#10;  A 1.06 1.06 0.0 0 1 43.92 315.73&#10;  Q 46.57 314.61 50.12 315.63&#10;  Q 51.67 316.08 50.99 317.55&#10;  Q 49.81 320.07 50.34 323.27&#10;  A 0.84 0.83 -11.4 0 1 49.70 324.22&#10;  Q 47.35 324.78 45.41 323.50&#10;  Q 44.97 323.20 44.44 323.26&#10;  C 42.83 323.42 41.50 324.44 39.85 324.15&#10;  C 27.95 322.06 33.46 302.66 43.85 307.85&#10;  Q 45.39 308.63 46.96 307.48&#10;  A 1.60 1.60 0.0 0 1 49.51 308.81&#10;  L 49.43 312.90&#10;  A 1.89 1.89 0.0 0 1 46.15 314.15&#10;  L 44.16 312.01&#10;  A 2.15 2.15 0.0 0 0 41.98 311.40&#10;  Z"/>
<path fill="#040304" d="&#10;  M 58.85 317.48&#10;  Q 58.51 319.82 60.08 321.75&#10;  A 1.54 1.53 -20.5 0 1 58.93 324.26&#10;  L 54.03 324.40&#10;  A 1.40 1.40 0.0 0 1 52.65 322.57&#10;  C 53.11 321.12 54.01 319.86 54.08 318.31&#10;  Q 54.21 315.11 54.03 311.93&#10;  Q 54.00 311.33 53.72 310.81&#10;  L 52.54 308.61&#10;  A 1.08 1.08 0.0 0 1 53.43 307.02&#10;  Q 58.00 306.74 62.49 307.11&#10;  Q 67.79 307.56 67.13 312.54&#10;  Q 67.05 313.10 66.65 313.49&#10;  L 65.41 314.70&#10;  Q 65.01 315.09 65.27 315.59&#10;  L 67.06 319.07&#10;  Q 67.32 319.58 67.89 319.57&#10;  Q 68.33 319.56 68.77 319.68&#10;  A 1.18 1.17 89.0 0 1 69.58 320.47&#10;  Q 70.23 322.53 68.25 323.59&#10;  Q 65.19 325.24 62.60 322.61&#10;  C 60.92 320.91 62.86 317.07 59.78 316.76&#10;  Q 58.97 316.68 58.85 317.48&#10;  Z&#10;  M 59.9870 314.4816&#10;  A 2.27 2.03 104.1 0 0 62.5088 312.7745&#10;  A 2.27 2.03 104.1 0 0 61.0930 310.0784&#10;  A 2.27 2.03 104.1 0 0 58.5712 311.7855&#10;  A 2.27 2.03 104.1 0 0 59.9870 314.4816&#10;  Z"/>
<path fill="#040304" d="&#10;  M 258.43 318.76&#10;  L 254.97 318.73&#10;  A 1.20 1.20 0.0 0 0 253.93 320.54&#10;  L 255.25 322.76&#10;  A 1.03 1.03 0.0 0 1 254.49 324.31&#10;  Q 251.45 324.66 248.56 324.23&#10;  A 1.21 1.21 0.0 0 1 247.79 322.27&#10;  C 248.73 321.09 249.79 320.17 250.21 318.65&#10;  Q 251.22 314.95 252.33 311.56&#10;  Q 252.52 310.99 252.28 310.45&#10;  Q 251.74 309.16 251.72 307.76&#10;  Q 251.71 306.98 252.49 306.97&#10;  L 259.95 306.92&#10;  A 1.54 1.53 81.8 0 1 261.44 308.04&#10;  Q 262.91 313.14 264.65 318.70&#10;  C 265.13 320.25 266.12 321.29 267.20 322.44&#10;  A 1.13 1.13 0.0 0 1 266.40 324.34&#10;  L 258.85 324.46&#10;  Q 258.11 324.48 257.54 324.01&#10;  Q 256.67 323.29 257.32 322.37&#10;  Q 257.95 321.47 258.95 320.97&#10;  A 1.17 1.17 0.0 0 0 258.43 318.76&#10;  Z&#10;  M 257.24 312.04&#10;  A 0.66 0.66 0.0 0 0 255.97 312.05&#10;  L 255.04 315.21&#10;  A 0.66 0.66 0.0 0 0 255.41 316.00&#10;  L 256.49 316.46&#10;  A 0.66 0.66 0.0 0 0 257.07 316.43&#10;  L 257.89 315.96&#10;  A 0.66 0.66 0.0 0 0 258.20 315.20&#10;  L 257.24 312.04&#10;  Z"/>
<path fill="#040304" d="&#10;  M 324.88 314.99&#10;  Q 326.53 315.08 327.40 316.38&#10;  Q 327.76 316.92 327.46 317.50&#10;  Q 326.28 319.85 326.82 322.73&#10;  A 1.55 1.54 88.2 0 1 325.11 324.56&#10;  Q 323.03 324.31 321.24 323.48&#10;  A 1.67 1.67 0.0 0 0 319.79 323.50&#10;  C 316.41 325.18 312.23 323.70 310.58 320.26&#10;  Q 308.27 315.43 310.88 310.86&#10;  C 312.47 308.07 315.92 306.07 319.11 307.38&#10;  Q 319.96 307.73 320.81 308.03&#10;  Q 321.37 308.23 321.92 308.01&#10;  L 323.87 307.23&#10;  A 1.57 1.57 0.0 0 1 326.02 308.78&#10;  Q 325.89 310.97 325.67 313.33&#10;  Q 325.58 314.28 324.82 314.76&#10;  Q 324.50 314.97 324.88 314.99&#10;  Z&#10;  M 319.96 316.04&#10;  Q 321.19 314.99 323.09 315.17&#10;  Q 324.08 315.26 323.24 314.75&#10;  Q 321.92 313.94 320.97 312.64&#10;  C 319.55 310.69 316.92 311.17 315.82 313.14&#10;  C 314.03 316.37 315.49 321.29 319.97 320.35&#10;  Q 320.77 320.19 320.91 319.43&#10;  Q 321.10 318.41 320.04 317.68&#10;  Q 318.94 316.91 319.96 316.04&#10;  Z"/>
<path fill="#040304" d="&#10;  M 351.79 317.68&#10;  Q 351.51 319.38 352.66 320.86&#10;  Q 355.31 324.28 350.98 324.37&#10;  L 347.42 324.44&#10;  A 1.67 1.67 0.0 0 1 345.84 322.13&#10;  C 346.39 320.80 347.25 319.59 347.27 318.11&#10;  Q 347.31 315.25 347.32 312.36&#10;  C 347.33 310.95 346.41 309.90 345.85 308.65&#10;  A 1.21 1.21 0.0 0 1 346.93 306.95&#10;  C 350.48 306.88 361.64 305.47 360.22 312.35&#10;  C 359.99 313.47 359.19 314.01 358.39 314.73&#10;  Q 357.93 315.14 358.24 315.67&#10;  L 360.36 319.23&#10;  A 1.23 1.22 82.1 0 0 361.07 319.77&#10;  Q 361.64 319.92 362.23 319.89&#10;  A 0.47 0.46 82.8 0 1 362.71 320.27&#10;  C 363.49 324.52 358.12 325.32 355.74 322.49&#10;  C 354.62 321.17 354.96 319.81 354.59 318.29&#10;  Q 354.19 316.62 352.51 316.95&#10;  Q 351.89 317.07 351.79 317.68&#10;  Z&#10;  M 355.82 312.29&#10;  A 2.19 2.19 0.0 0 0 353.63 310.10&#10;  A 2.19 2.19 0.0 0 0 351.44 312.29&#10;  A 2.19 2.19 0.0 0 0 353.63 314.48&#10;  A 2.19 2.19 0.0 0 0 355.82 312.29&#10;  Z"/>
</svg>