<svg xmlns="http://www.w3.org/2000/svg" version="1.1" viewBox="1.7313883304595947 1.6836751699447632 379.8155517578125 322.2705383300781" width="383.00" height="325.00">
<path fill="#858585" d="&#10;  M 295.46 93.70&#10;  L 295.65 93.54&#10;  Q 296.08 93.21 295.78 92.76&#10;  C 278.89 67.66 257.88 46.50 229.34 36.65&#10;  A 1.57 1.56 16.6 0 1 228.33 34.79&#10;  Q 228.77 33.03 230.30 31.81&#10;  C 252.84 13.84 278.05 21.45 297.86 39.01&#10;  Q 322.92 61.23 331.34 96.33&#10;  Q 332.90 102.83 334.12 110.02&#10;  A 1.69 1.68 85.1 0 0 335.78 111.43&#10;  L 355.45 111.37&#10;  A 1.09 1.08 0.0 0 1 356.54 112.45&#10;  L 356.55 173.38&#10;  A 1.18 1.18 0.0 0 1 355.37 174.56&#10;  L 276.20 174.49&#10;  A 1.34 1.33 3.4 0 0 274.87 175.66&#10;  C 272.64 194.30 260.11 209.25 244.22 218.14&#10;  C 227.36 227.56 208.95 232.65 189.86 235.93&#10;  C 186.73 236.47 182.72 236.66 179.13 237.38&#10;  Q 177.92 237.62 177.85 237.71&#10;  Q 176.45 239.31 178.58 239.26&#10;  Q 190.85 238.99 203.79 238.02&#10;  C 223.80 236.53 244.71 229.83 261.43 218.02&#10;  Q 262.18 217.49 263.13 217.31&#10;  A 1.95 1.95 0.0 0 1 265.42 218.99&#10;  C 268.39 243.36 252.78 261.07 230.78 268.68&#10;  Q 204.04 277.92 178.05 272.70&#10;  C 156.98 268.46 137.55 259.58 120.04 247.37&#10;  Q 111.29 241.28 103.27 235.29&#10;  Q 102.33 234.59 101.47 233.82&#10;  C 100.07 232.59 100.16 231.09 102.01 230.32&#10;  Q 108.29 227.74 115.01 224.94&#10;  Q 138.76 215.05 159.23 200.88&#10;  C 165.22 196.73 170.30 191.78 176.45 187.85&#10;  Q 190.78 178.69 207.15 179.46&#10;  Q 217.65 179.95 226.68 183.76&#10;  Q 239.96 189.35 250.21 199.29&#10;  Q 251.44 200.47 252.71 199.34&#10;  Q 263.76 189.51 267.33 175.29&#10;  A 0.64 0.63 6.8 0 0 266.71 174.51&#10;  Q 201.01 174.40 127.65 174.55&#10;  Q 127.27 174.55 126.94 174.74&#10;  Q 126.15 175.19 126.80 175.82&#10;  Q 132.78 181.71 141.21 185.95&#10;  A 1.56 1.55 -68.0 0 1 141.99 187.81&#10;  Q 141.35 189.81 139.00 189.25&#10;  Q 125.70 186.09 115.54 175.98&#10;  Q 113.96 174.41 111.25 174.41&#10;  Q 69.50 174.48 27.38 174.60&#10;  A 0.85 0.85 0.0 0 1 26.53 173.75&#10;  L 26.53 112.17&#10;  A 0.80 0.80 0.0 0 1 27.33 111.37&#10;  L 59.28 111.45&#10;  A 1.17 1.17 0.0 0 0 60.45 110.33&#10;  C 63.08 55.31 105.85 22.10 152.31 1.81&#10;  A 1.48 1.47 71.3 0 1 154.34 2.82&#10;  Q 154.76 4.52 154.53 6.31&#10;  Q 150.71 35.47 153.91 64.40&#10;  C 154.66 71.15 155.92 77.72 157.28 84.29&#10;  C 159.05 92.86 158.54 101.87 156.09 110.28&#10;  A 0.83 0.83 0.0 0 0 156.89 111.34&#10;  Q 195.28 111.32 232.57 111.35&#10;  Q 233.70 111.35 234.93 111.15&#10;  A 0.72 0.72 0.0 0 0 235.35 109.96&#10;  C 222.36 95.19 218.86 75.72 221.78 56.55&#10;  Q 221.99 55.19 220.64 54.91&#10;  Q 201.84 51.01 185.47 59.75&#10;  Q 182.05 61.58 177.78 64.44&#10;  Q 176.62 65.21 175.41 64.41&#10;  A 1.72 1.72 0.0 0 1 174.92 62.05&#10;  C 180.19 53.80 191.50 47.62 200.35 45.64&#10;  C 219.20 41.44 238.07 47.88 254.04 58.24&#10;  Q 275.33 72.05 295.14 93.67&#10;  Q 295.28 93.83 295.46 93.70&#10;  Z&#10;  M 112.44 68.40&#10;  L 112.18 68.21&#10;  Q 111.87 67.99 111.69 68.32&#10;  Q 100.87 88.07 94.76 110.08&#10;  Q 94.40 111.41 95.77 111.40&#10;  L 99.98 111.37&#10;  Q 101.18 111.37 101.45 110.19&#10;  C 102.59 105.20 103.13 100.17 104.43 95.35&#10;  Q 108.12 81.71 112.73 69.36&#10;  A 0.83 0.83 0.0 0 0 112.44 68.40&#10;  Z&#10;  M 153.13 153.18&#10;  Q 153.05 155.24 151.43 156.07&#10;  C 147.69 158.00 144.48 155.90 143.28 152.30&#10;  Q 141.53 147.06 144.12 142.46&#10;  Q 146.61 138.06 151.03 139.98&#10;  Q 152.92 140.80 153.24 143.14&#10;  Q 153.50 145.05 155.44 145.04&#10;  L 160.96 145.00&#10;  Q 162.16 144.99 162.15 143.79&#10;  L 162.04 132.69&#10;  Q 162.03 131.69 161.03 131.65&#10;  Q 158.44 131.54 156.29 131.62&#10;  Q 154.79 131.67 154.71 133.30&#10;  Q 154.62 134.89 153.42 133.85&#10;  Q 149.16 130.15 142.93 131.48&#10;  C 126.28 135.03 127.38 165.89 147.49 164.09&#10;  Q 149.85 163.88 152.05 162.32&#10;  Q 152.58 161.94 153.14 162.26&#10;  L 154.82 163.24&#10;  Q 155.24 163.48 155.73 163.48&#10;  L 163.10 163.49&#10;  A 0.60 0.60 0.0 0 0 163.70 162.89&#10;  L 163.60 153.26&#10;  A 1.19 1.18 -22.4 0 1 163.97 152.38&#10;  Q 165.26 151.16 165.40 149.49&#10;  Q 165.57 147.54 163.62 147.51&#10;  L 151.18 147.33&#10;  A 0.78 0.78 0.0 0 0 150.43 147.86&#10;  Q 149.07 151.95 152.69 152.63&#10;  A 0.54 0.54 0.0 0 1 153.13 153.18&#10;  Z&#10;  M 194.80 136.06&#10;  C 193.64 134.46 192.45 132.73 190.46 132.07&#10;  C 184.87 130.24 177.76 131.28 175.27 137.13&#10;  C 172.61 143.36 176.09 148.34 181.90 150.33&#10;  Q 185.90 151.70 190.66 153.12&#10;  A 1.55 1.55 0.0 0 1 190.93 155.99&#10;  Q 187.46 157.79 183.63 155.35&#10;  Q 183.03 154.96 182.90 154.26&#10;  Q 182.74 153.36 182.17 152.71&#10;  Q 181.74 152.20 181.07 152.21&#10;  L 174.32 152.28&#10;  Q 173.68 152.29 173.67 152.93&#10;  L 173.57 162.38&#10;  A 1.06 1.05 -90.0 0 0 174.63 163.45&#10;  L 181.13 163.38&#10;  Q 181.72 163.38 181.89 162.82&#10;  L 182.30 161.45&#10;  A 0.53 0.53 0.0 0 1 183.08 161.15&#10;  C 183.84 161.60 184.48 162.28 185.26 162.69&#10;  C 191.43 165.95 202.19 164.17 203.70 156.22&#10;  C 204.97 149.50 198.62 146.18 193.04 144.65&#10;  C 190.59 143.98 187.93 143.05 186.05 141.36&#10;  A 1.68 1.67 -37.6 0 1 186.41 138.63&#10;  Q 189.76 136.91 193.11 139.13&#10;  C 193.96 139.70 194.07 140.69 194.21 141.61&#10;  A 1.75 1.74 86.6 0 0 195.87 143.09&#10;  L 201.92 143.30&#10;  A 0.98 0.98 0.0 0 0 202.93 142.32&#10;  L 202.95 132.99&#10;  Q 202.95 131.71 201.68 131.87&#10;  Q 198.71 132.26 195.80 131.92&#10;  Q 194.51 131.76 194.67 133.06&#10;  L 195.03 135.97&#10;  Q 195.09 136.44 194.80 136.06&#10;  Z&#10;  M 222.76 140.61&#10;  C 223.01 142.20 222.97 143.75 223.41 145.30&#10;  Q 225.97 154.28 228.09 162.40&#10;  A 1.42 1.41 82.9 0 0 229.46 163.47&#10;  L 237.29 163.49&#10;  A 1.46 1.45 -82.8 0 0 238.70 162.39&#10;  L 244.00 141.48&#10;  Q 244.51 139.45 244.45 141.54&#10;  L 243.99 156.19&#10;  Q 243.97 156.77 243.53 157.13&#10;  Q 240.92 159.23 241.70 162.94&#10;  A 0.60 0.60 0.0 0 0 242.29 163.42&#10;  L 255.26 163.49&#10;  A 0.94 0.94 0.0 0 0 256.20 162.63&#10;  C 256.34 160.87 256.83 157.64 254.24 157.35&#10;  Q 253.65 157.28 253.66 156.69&#10;  L 253.81 139.49&#10;  Q 253.82 138.74 254.49 138.38&#10;  C 256.64 137.24 256.28 135.31 256.39 133.15&#10;  Q 256.45 131.87 255.12 131.85&#10;  Q 246.93 131.71 239.21 131.96&#10;  A 0.70 0.70 0.0 0 0 238.56 132.48&#10;  L 234.60 147.47&#10;  Q 234.45 148.03 234.31 147.47&#10;  L 230.38 132.56&#10;  A 0.97 0.97 0.0 0 0 229.44 131.84&#10;  L 213.26 131.89&#10;  A 0.81 0.81 0.0 0 0 212.45 132.74&#10;  L 212.66 136.72&#10;  A 1.05 1.05 0.0 0 0 213.15 137.55&#10;  L 214.56 138.45&#10;  Q 215.04 138.75 215.04 139.33&#10;  L 215.00 156.05&#10;  Q 215.00 156.88 214.26 157.25&#10;  Q 211.70 158.55 212.68 162.75&#10;  A 0.86 0.86 0.0 0 0 213.52 163.42&#10;  L 224.34 163.49&#10;  A 0.79 0.79 0.0 0 0 225.14 162.66&#10;  L 224.94 158.82&#10;  Q 224.91 158.18 224.43 157.76&#10;  Q 223.98 157.35 223.37 157.17&#10;  A 0.95 0.95 0.0 0 1 222.70 156.29&#10;  Q 222.53 148.06 222.56 140.62&#10;  Q 222.57 139.37 222.76 140.61&#10;  Z"/>
<path fill="#858585" d="&#10;  M 1.95 189.53&#10;  C 5.21 181.74 8.51 173.57 11.83 165.53&#10;  C 12.59 163.69 12.62 161.69 11.88 159.84&#10;  Q 6.78 147.23 1.78 134.82&#10;  A 0.67 0.66 -12.7 0 1 2.36 133.91&#10;  Q 9.25 133.50 16.47 134.07&#10;  A 0.92 0.91 2.4 0 1 17.31 134.98&#10;  L 17.27 178.66&#10;  A 1.17 1.16 -74.5 0 0 17.83 179.66&#10;  L 35.23 190.44&#10;  Q 36.16 191.01 35.07 191.01&#10;  L 2.92 190.99&#10;  Q 1.34 190.99 1.95 189.53&#10;  Z"/>
<path fill="#858585" d="&#10;  M 365.30 180.07&#10;  A 2.41 2.38 -15.6 0 0 366.47 178.02&#10;  L 366.49 135.48&#10;  A 1.61 1.60 -1.7 0 1 368.00 133.88&#10;  Q 374.28 133.53 380.40 133.95&#10;  Q 382.01 134.06 381.36 135.54&#10;  Q 375.55 148.53 371.40 160.05&#10;  Q 370.37 162.89 371.75 166.29&#10;  Q 376.58 178.25 381.36 189.97&#10;  Q 381.75 190.93 380.72 190.93&#10;  L 347.55 191.07&#10;  Q 346.99 191.07 347.47 190.78&#10;  L 365.30 180.07&#10;  Z"/>
<path fill="#858585" d="&#10;  M 33.74 180.92&#10;  Q 33.69 180.90 33.64 180.89&#10;  Q 33.47 180.86 33.64 180.87&#10;  Q 38.22 181.15 42.75 181.00&#10;  A 0.66 0.66 0.0 0 1 43.43 181.67&#10;  L 43.37 186.02&#10;  A 0.35 0.35 0.0 0 1 42.80 186.29&#10;  Q 38.69 183.04 33.74 180.92&#10;  Z"/>
<path fill="#858585" d="&#10;  M 348.72 181.10&#10;  L 340.66 185.93&#10;  Q 339.86 186.41 339.84 185.48&#10;  L 339.76 182.10&#10;  Q 339.74 181.19 340.65 181.17&#10;  L 348.69 181.00&#10;  Q 348.88 181.00 348.72 181.10&#10;  Z"/>
<path fill="#030203" d="&#10;  M 134.27 322.46&#10;  Q 133.29 324.52 131.04 323.74&#10;  Q 130.50 323.55 130.50 322.97&#10;  L 130.52 318.57&#10;  A 0.95 0.95 0.0 0 1 131.11 317.69&#10;  Q 133.45 316.71 134.88 318.69&#10;  C 135.83 320.00 137.84 320.24 139.30 319.88&#10;  A 1.12 1.12 0.0 0 0 140.03 318.28&#10;  Q 139.53 317.28 138.40 317.05&#10;  C 134.65 316.27 128.74 314.13 131.35 308.85&#10;  C 133.02 305.48 137.67 305.42 140.64 307.30&#10;  Q 141.09 307.59 141.58 307.39&#10;  L 144.09 306.38&#10;  A 1.37 1.36 -10.9 0 1 145.97 307.65&#10;  L 145.97 311.09&#10;  Q 145.96 311.72 145.40 312.01&#10;  Q 144.10 312.67 142.84 312.17&#10;  Q 142.32 311.97 142.02 311.50&#10;  Q 140.36 308.90 136.94 310.03&#10;  A 0.94 0.94 0.0 0 0 136.47 311.47&#10;  C 137.59 313.01 141.51 313.84 143.35 314.66&#10;  C 147.38 316.46 147.27 321.25 143.18 322.91&#10;  C 140.03 324.19 138.17 323.37 135.48 322.04&#10;  Q 134.66 321.64 134.27 322.46&#10;  Z"/>
<path fill="#030203" d="&#10;  M 43.91 317.92&#10;  L 43.37 317.26&#10;  A 1.39 1.39 0.0 0 1 44.42 314.99&#10;  L 49.15 314.89&#10;  A 1.43 1.43 0.0 0 1 50.46 316.96&#10;  Q 49.26 319.40 49.78 322.08&#10;  A 1.42 1.42 0.0 0 1 48.57 323.76&#10;  Q 46.22 324.06 44.61 322.62&#10;  Q 44.09 322.16 43.45 322.45&#10;  L 41.20 323.51&#10;  Q 40.67 323.76 40.08 323.67&#10;  Q 33.43 322.66 32.83 316.31&#10;  Q 32.26 310.34 37.15 307.36&#10;  C 38.86 306.32 41.06 306.39 42.84 307.29&#10;  Q 44.87 308.30 47.07 306.99&#10;  A 1.18 1.18 0.0 0 1 48.85 308.02&#10;  L 48.77 312.75&#10;  A 1.67 1.67 0.0 0 1 46.04 314.01&#10;  Q 44.94 313.12 44.20 311.99&#10;  C 42.99 310.16 40.22 310.58 39.10 312.18&#10;  C 36.96 315.24 38.00 320.94 43.13 320.02&#10;  Q 45.31 319.63 43.91 317.92&#10;  Z"/>
<path fill="#030203" d="&#10;  M 64.51 315.45&#10;  Q 65.84 316.66 66.21 318.47&#10;  C 66.40 319.36 67.23 319.76 68.07 319.46&#10;  A 0.84 0.84 0.0 0 1 69.18 320.31&#10;  Q 68.98 323.75 65.20 323.49&#10;  C 60.48 323.17 62.31 319.63 60.83 316.88&#10;  Q 60.36 316.00 59.36 316.09&#10;  Q 58.93 316.12 58.45 316.44&#10;  A 1.33 1.33 0.0 0 0 57.90 317.87&#10;  Q 58.39 319.74 59.59 321.35&#10;  A 1.38 1.38 0.0 0 1 58.53 323.56&#10;  L 53.25 323.74&#10;  A 0.99 0.99 0.0 0 1 52.23 322.70&#10;  Q 52.30 321.18 53.22 319.82&#10;  A 2.37 2.35 -26.9 0 0 53.62 318.61&#10;  Q 53.77 315.56 53.74 312.09&#10;  C 53.72 310.52 52.74 309.59 52.22 308.20&#10;  A 1.20 1.19 80.0 0 1 53.35 306.58&#10;  Q 57.35 306.61 61.28 306.69&#10;  C 64.77 306.76 67.16 308.31 66.37 312.04&#10;  Q 66.26 312.56 65.92 312.96&#10;  L 64.46 314.68&#10;  Q 64.12 315.09 64.51 315.45&#10;  Z&#10;  M 62.37 311.83&#10;  A 2.28 2.28 0.0 0 0 60.09 309.55&#10;  A 2.28 2.28 0.0 0 0 57.81 311.83&#10;  A 2.28 2.28 0.0 0 0 60.09 314.11&#10;  A 2.28 2.28 0.0 0 0 62.37 311.83&#10;  Z"/>
<path fill="#030203" d="&#10;  M 76.92 316.92&#10;  Q 76.67 318.51 76.99 320.02&#10;  Q 77.12 320.61 77.70 320.79&#10;  Q 80.49 321.64 82.35 319.10&#10;  A 1.40 1.40 0.0 0 1 84.69 319.21&#10;  Q 85.57 320.72 85.21 322.81&#10;  A 1.03 1.03 0.0 0 1 84.20 323.66&#10;  L 71.81 323.67&#10;  A 0.82 0.82 0.0 0 1 71.05 322.56&#10;  Q 73.80 315.39 70.91 307.87&#10;  A 0.87 0.86 -12.5 0 1 71.66 306.70&#10;  Q 77.95 306.29 84.40 306.77&#10;  A 1.18 1.17 -1.2 0 1 85.49 307.81&#10;  Q 85.65 309.29 85.04 310.62&#10;  A 1.80 1.80 0.0 0 1 82.03 311.03&#10;  Q 80.32 309.00 77.73 309.92&#10;  A 1.55 1.54 49.4 0 0 77.52 312.73&#10;  Q 78.92 313.49 80.70 313.14&#10;  Q 81.41 313.00 81.70 313.67&#10;  Q 82.11 314.59 81.66 315.50&#10;  A 1.02 1.02 0.0 0 1 80.66 316.06&#10;  Q 78.97 315.90 77.44 316.33&#10;  Q 76.99 316.46 76.92 316.92&#10;  Z"/>
<path fill="#030203" d="&#10;  M 92.97 310.89&#10;  Q 92.89 311.81 93.36 312.62&#10;  A 1.07 1.06 -14.3 0 0 94.27 313.16&#10;  L 97.37 313.21&#10;  Q 98.10 313.23 98.27 313.93&#10;  Q 98.35 314.28 98.31 314.64&#10;  Q 98.17 315.83 96.98 315.93&#10;  L 94.24 316.16&#10;  A 1.03 1.03 0.0 0 0 93.34 316.89&#10;  Q 92.93 318.25 93.31 319.89&#10;  Q 93.46 320.55 94.10 320.78&#10;  Q 95.53 321.27 97.11 320.73&#10;  Q 97.69 320.53 97.96 319.98&#10;  Q 98.40 319.12 99.28 318.73&#10;  A 1.63 1.63 0.0 0 1 101.55 319.97&#10;  L 101.89 322.29&#10;  Q 102.10 323.66 100.72 323.65&#10;  L 88.01 323.58&#10;  A 0.77 0.77 0.0 0 1 87.33 322.45&#10;  C 88.06 321.03 88.78 319.70 88.77 318.09&#10;  C 88.74 314.66 89.51 310.88 87.18 308.00&#10;  A 0.78 0.78 0.0 0 1 87.78 306.74&#10;  L 100.86 306.63&#10;  Q 102.11 306.62 101.93 307.86&#10;  L 101.59 310.24&#10;  A 1.68 1.68 0.0 0 1 98.60 311.02&#10;  Q 96.83 308.71 93.62 310.02&#10;  Q 93.03 310.26 92.97 310.89&#10;  Z"/>
<path fill="#030203" d="&#10;  M 108.74 315.51&#10;  L 108.61 317.75&#10;  Q 108.50 319.73 109.96 321.06&#10;  Q 110.55 321.61 110.85 322.38&#10;  A 0.95 0.95 0.0 0 1 109.96 323.67&#10;  L 104.06 323.66&#10;  A 0.77 0.77 0.0 0 1 103.43 322.45&#10;  C 105.63 319.25 105.27 316.11 105.26 312.43&#10;  C 105.25 310.72 104.33 309.40 103.31 308.14&#10;  Q 102.47 307.10 103.79 306.84&#10;  Q 107.00 306.21 109.96 306.69&#10;  A 1.25 1.25 0.0 0 1 110.80 307.24&#10;  L 115.51 314.65&#10;  Q 116.71 316.55 117.04 314.33&#10;  Q 117.50 311.22 115.45 308.98&#10;  A 1.46 1.46 0.0 0 1 116.49 306.53&#10;  L 121.11 306.43&#10;  A 1.15 1.15 0.0 0 1 122.11 308.19&#10;  L 120.66 310.53&#10;  Q 120.36 311.02 120.36 311.60&#10;  L 120.29 322.76&#10;  Q 120.29 323.55 119.51 323.69&#10;  Q 117.71 324.02 116.02 323.52&#10;  Q 115.22 323.28 114.81 322.56&#10;  Q 112.51 318.60 109.91 315.16&#10;  Q 108.84 313.74 108.74 315.51&#10;  Z"/>
<path fill="#030203" d="&#10;  M 155.30 316.12&#10;  A 1.15 1.14 -81.7 0 0 154.07 317.04&#10;  Q 153.55 319.73 155.37 321.75&#10;  A 1.18 1.18 0.0 0 1 154.50 323.72&#10;  L 149.19 323.73&#10;  A 1.04 1.04 0.0 0 1 148.20 322.36&#10;  C 148.72 320.81 149.54 319.53 149.52 317.84&#10;  Q 149.48 314.74 149.49 311.75&#10;  C 149.50 310.50 148.69 309.63 148.34 308.48&#10;  Q 147.72 306.43 149.86 306.50&#10;  Q 153.74 306.61 157.80 306.79&#10;  Q 161.75 306.96 162.27 310.64&#10;  C 162.87 314.91 158.73 316.45 155.30 316.12&#10;  Z&#10;  M 157.8961 310.5163&#10;  A 2.36 2.21 -35.3 0 0 154.6929 310.0763&#10;  A 2.36 2.21 -35.3 0 0 154.0439 313.2437&#10;  A 2.36 2.21 -35.3 0 0 157.2471 313.6837&#10;  A 2.36 2.21 -35.3 0 0 157.8961 310.5163&#10;  Z"/>
<path fill="#030203" d="&#10;  M 168.06 318.26&#10;  A 1.19 1.19 0.0 0 0 167.42 320.28&#10;  L 168.88 321.73&#10;  A 1.15 1.15 0.0 0 1 168.08 323.69&#10;  L 162.75 323.78&#10;  Q 162.04 323.79 161.62 323.22&#10;  Q 160.84 322.16 161.94 321.32&#10;  C 164.30 319.52 165.05 315.32 165.79 312.53&#10;  C 166.26 310.80 165.86 309.25 165.62 307.56&#10;  A 0.92 0.92 0.0 0 1 166.54 306.51&#10;  L 174.00 306.60&#10;  A 1.01 1.01 0.0 0 1 174.96 307.34&#10;  Q 176.47 312.73 178.09 318.27&#10;  C 178.52 319.75 179.58 320.57 180.58 321.64&#10;  A 1.19 1.19 0.0 0 1 179.72 323.64&#10;  L 172.10 323.70&#10;  A 1.07 1.07 0.0 0 1 171.03 322.75&#10;  Q 171.01 322.49 171.08 322.23&#10;  Q 171.22 321.71 171.65 321.49&#10;  Q 172.61 321.00 173.08 320.29&#10;  Q 174.32 318.42 172.08 318.17&#10;  Q 169.98 317.93 168.06 318.26&#10;  Z&#10;  M 169.14 315.97&#10;  L 171.36 316.02&#10;  A 0.49 0.49 0.0 0 0 171.86 315.55&#10;  L 171.87 315.40&#10;  A 4.50 1.54 -88.7 0 0 170.43 310.86&#10;  L 170.31 310.86&#10;  A 4.50 1.54 -88.7 0 0 168.67 315.32&#10;  L 168.66 315.47&#10;  A 0.49 0.49 0.0 0 0 169.14 315.97&#10;  Z"/>
<path fill="#030203" d="&#10;  M 188.84 310.74&#10;  C 186.38 313.14 186.64 320.01 191.23 320.09&#10;  C 192.73 320.12 193.65 319.24 194.89 318.64&#10;  Q 196.11 318.05 196.77 319.22&#10;  L 197.02 319.65&#10;  Q 197.67 320.79 196.59 321.51&#10;  Q 192.24 324.44 187.41 322.98&#10;  C 178.04 320.15 182.28 303.12 192.63 307.44&#10;  Q 193.28 307.72 193.86 307.31&#10;  Q 195.33 306.27 197.03 306.71&#10;  Q 197.71 306.89 197.67 307.60&#10;  L 197.41 311.65&#10;  A 1.88 1.88 0.0 0 1 194.05 312.69&#10;  L 192.71 310.99&#10;  A 2.60 2.60 0.0 0 0 188.84 310.74&#10;  Z"/>
<path fill="#030203" d="&#10;  M 206.62 313.16&#10;  L 209.67 313.23&#10;  Q 210.59 313.25 210.60 314.17&#10;  L 210.61 314.95&#10;  Q 210.62 316.03 209.55 316.03&#10;  L 207.02 316.02&#10;  A 0.95 0.95 0.0 0 0 206.10 316.74&#10;  Q 205.77 318.00 205.94 319.58&#10;  Q 206.04 320.43 206.83 320.75&#10;  Q 209.02 321.64 210.42 319.69&#10;  A 1.94 1.94 0.0 0 1 211.31 319.00&#10;  Q 212.19 318.66 213.11 318.74&#10;  Q 214.00 318.82 214.01 319.72&#10;  L 214.05 322.97&#10;  Q 214.06 323.75 213.28 323.74&#10;  L 200.55 323.68&#10;  A 0.94 0.94 0.0 0 1 199.70 322.34&#10;  C 200.30 321.04 200.94 319.90 201.02 318.42&#10;  Q 201.21 314.95 201.00 311.72&#10;  C 200.90 310.25 200.19 309.10 199.56 307.80&#10;  A 0.82 0.82 0.0 0 1 200.30 306.62&#10;  L 213.22 306.59&#10;  A 0.87 0.87 0.0 0 1 214.09 307.47&#10;  L 214.04 310.22&#10;  A 1.69 1.68 -61.2 0 1 210.95 311.12&#10;  Q 209.79 309.36 207.32 309.65&#10;  C 205.74 309.83 205.33 311.32 205.86 312.63&#10;  Q 206.07 313.14 206.62 313.16&#10;  Z"/>
<path fill="#030203" d="&#10;  M 227.39 312.28&#10;  C 226.74 315.51 226.44 319.35 228.53 321.98&#10;  A 1.06 1.06 0.0 0 1 227.72 323.70&#10;  L 223.09 323.78&#10;  A 0.90 0.90 0.0 0 1 222.22 322.59&#10;  C 222.75 321.02 223.85 319.62 223.80 317.93&#10;  Q 223.71 314.80 223.79 311.68&#10;  Q 223.80 311.09 223.52 310.58&#10;  L 222.41 308.52&#10;  A 1.30 1.29 75.9 0 1 223.55 306.61&#10;  L 230.41 306.60&#10;  A 1.11 1.10 82.3 0 1 231.49 307.43&#10;  L 233.40 314.64&#10;  A 0.65 0.65 0.0 0 0 234.45 314.97&#10;  Q 234.74 314.71 234.88 314.14&#10;  Q 235.61 311.30 236.10 308.20&#10;  Q 236.36 306.58 238.00 306.57&#10;  L 244.59 306.54&#10;  A 1.24 1.23 -78.9 0 1 245.73 308.25&#10;  C 245.20 309.55 244.15 310.48 244.11 311.94&#10;  C 244.05 314.78 243.37 319.60 245.60 321.69&#10;  A 1.18 1.18 0.0 0 1 244.80 323.73&#10;  L 239.21 323.74&#10;  A 1.19 1.19 0.0 0 1 238.26 321.83&#10;  C 239.02 320.82 239.86 320.07 239.97 318.71&#10;  Q 240.22 315.34 239.77 312.63&#10;  Q 239.31 309.81 238.52 312.56&#10;  Q 237.42 316.42 236.73 320.48&#10;  Q 236.50 321.81 235.76 323.01&#10;  Q 235.48 323.47 234.96 323.60&#10;  Q 230.84 324.66 230.21 320.97&#10;  Q 229.42 316.35 227.85 312.24&#10;  Q 227.56 311.46 227.39 312.28&#10;  Z"/>
<path fill="#030203" d="&#10;  M 258.64 320.53&#10;  A 1.25 1.22 66.3 0 0 259.18 319.11&#10;  Q 258.86 318.04 257.69 318.12&#10;  Q 255.95 318.24 254.19 318.11&#10;  A 1.21 1.21 0.0 0 0 253.20 320.11&#10;  L 254.53 321.65&#10;  A 1.27 1.27 0.0 0 1 253.57 323.76&#10;  L 249.25 323.75&#10;  Q 245.05 323.74 248.17 320.93&#10;  C 248.80 320.36 249.49 319.66 249.73 318.83&#10;  Q 250.82 315.01 251.91 311.40&#10;  Q 252.08 310.86 251.94 310.31&#10;  L 251.29 307.75&#10;  A 0.99 0.98 -6.8 0 1 252.26 306.53&#10;  L 259.58 306.60&#10;  A 1.21 1.21 0.0 0 1 260.73 307.47&#10;  L 264.26 319.21&#10;  Q 264.42 319.73 264.84 320.07&#10;  Q 266.02 320.99 266.81 322.04&#10;  A 1.01 1.01 0.0 0 1 266.01 323.66&#10;  L 257.85 323.68&#10;  Q 257.28 323.68 256.98 323.20&#10;  Q 256.69 322.72 256.82 322.14&#10;  C 257.04 321.14 257.89 320.98 258.64 320.53&#10;  Z&#10;  M 254.11 315.13&#10;  A 0.71 0.71 0.0 0 0 254.80 316.06&#10;  L 257.45 316.00&#10;  A 0.71 0.71 0.0 0 0 258.09 315.03&#10;  L 256.68 311.35&#10;  A 0.71 0.71 0.0 0 0 255.34 311.38&#10;  L 254.11 315.13&#10;  Z"/>
<path fill="#030203" d="&#10;  M 273.35 315.55&#10;  Q 273.09 317.46 273.29 319.46&#10;  A 1.46 1.46 0.0 0 0 273.87 320.47&#10;  Q 274.56 320.97 275.06 321.65&#10;  A 1.31 1.30 -18.1 0 1 274.00 323.73&#10;  L 269.44 323.68&#10;  A 1.17 1.17 0.0 0 1 268.44 321.91&#10;  C 269.18 320.64 269.85 319.37 269.79 317.86&#10;  Q 269.68 315.00 269.78 312.18&#10;  C 269.83 310.71 268.96 309.65 268.29 308.40&#10;  A 1.19 1.18 -17.3 0 1 269.21 306.66&#10;  C 271.16 306.45 274.79 305.91 275.99 307.94&#10;  Q 277.90 311.16 279.98 314.43&#10;  A 1.09 1.08 79.4 0 0 280.69 314.92&#10;  Q 281.69 315.13 281.73 314.40&#10;  Q 281.90 311.12 280.07 308.82&#10;  A 1.43 1.42 -19.2 0 1 281.19 306.51&#10;  L 285.77 306.52&#10;  A 1.38 1.38 0.0 0 1 286.80 308.81&#10;  C 285.97 309.75 285.01 310.62 285.01 311.95&#10;  Q 285.01 317.55 285.06 322.90&#10;  Q 285.07 323.60 284.36 323.69&#10;  C 282.70 323.90 280.29 324.01 279.30 322.33&#10;  Q 277.11 318.62 274.89 315.20&#10;  Q 273.65 313.30 273.35 315.55&#10;  Z"/>
<path fill="#030203" d="&#10;  M 300.33 320.06&#10;  A 1.15 1.15 0.0 0 0 299.42 318.24&#10;  L 295.14 318.13&#10;  Q 294.68 318.12 294.34 318.42&#10;  C 293.65 319.02 293.73 320.11 294.48 320.63&#10;  Q 295.00 321.00 295.49 321.39&#10;  C 296.10 321.86 296.19 322.72 295.71 323.32&#10;  Q 295.39 323.72 294.87 323.70&#10;  Q 292.57 323.65 290.44 323.71&#10;  Q 286.47 323.82 289.20 320.93&#10;  C 290.01 320.08 290.63 319.42 290.95 318.24&#10;  Q 291.91 314.75 293.00 311.26&#10;  Q 293.24 310.51 292.49 308.14&#10;  Q 291.98 306.50 293.70 306.51&#10;  L 300.48 306.59&#10;  Q 301.60 306.60 301.91 307.68&#10;  Q 303.45 313.03 304.95 318.25&#10;  C 305.38 319.75 306.45 320.55 307.43 321.63&#10;  Q 307.94 322.19 307.77 322.85&#10;  A 1.03 1.03 0.0 0 1 306.80 323.63&#10;  Q 303.02 323.70 299.16 323.75&#10;  Q 298.51 323.76 298.12 323.27&#10;  Q 297.77 322.83 297.88 322.25&#10;  A 1.60 1.57 -3.9 0 1 298.97 321.03&#10;  Q 299.82 320.77 300.33 320.06&#10;  Z&#10;  M 296.37 316.05&#10;  L 298.20 315.94&#10;  A 0.68 0.68 0.0 0 0 298.84 315.22&#10;  L 298.83 315.09&#10;  A 4.29 1.55 86.5 0 0 297.02 310.90&#10;  L 296.92 310.91&#10;  A 4.29 1.55 86.5 0 0 295.64 315.28&#10;  L 295.65 315.41&#10;  A 0.68 0.68 0.0 0 0 296.37 316.05&#10;  Z"/>
<path fill="#030203" d="&#10;  M 320.25 319.76&#10;  A 0.97 0.97 0.0 0 0 320.50 318.07&#10;  Q 319.78 317.54 319.46 316.77&#10;  A 1.25 1.25 0.0 0 1 320.55 315.03&#10;  L 325.46 314.81&#10;  A 1.38 1.38 0.0 0 1 326.85 316.59&#10;  Q 326.01 319.44 326.14 322.54&#10;  Q 326.20 323.76 324.97 323.81&#10;  Q 322.79 323.91 321.11 322.84&#10;  A 1.38 1.37 50.8 0 0 319.89 322.71&#10;  Q 313.26 325.23 310.18 319.56&#10;  C 306.72 313.17 312.69 303.13 320.39 307.76&#10;  A 1.21 1.20 -42.5 0 0 321.56 307.81&#10;  L 323.49 306.86&#10;  A 1.28 1.28 0.0 0 1 325.34 308.02&#10;  L 325.26 312.93&#10;  A 0.97 0.95 -20.6 0 1 324.92 313.66&#10;  Q 323.95 314.48 322.52 314.19&#10;  Q 321.94 314.07 321.63 313.57&#10;  C 320.34 311.47 318.48 309.35 316.01 311.73&#10;  C 312.73 314.88 314.80 321.80 320.25 319.76&#10;  Z"/>
<path fill="#030203" d="&#10;  M 336.24 313.08&#10;  L 338.66 313.14&#10;  Q 339.97 313.17 339.83 314.47&#10;  Q 339.80 314.71 339.77 314.94&#10;  A 1.36 1.36 0.0 0 1 338.39 316.12&#10;  L 335.98 316.07&#10;  Q 335.25 316.05 335.05 316.75&#10;  Q 334.63 318.25 334.93 319.85&#10;  Q 335.02 320.30 335.41 320.55&#10;  Q 336.70 321.33 338.22 320.80&#10;  Q 338.64 320.65 338.90 320.29&#10;  Q 339.78 319.11 341.29 318.71&#10;  A 1.56 1.56 0.0 0 1 343.26 320.27&#10;  L 343.18 322.67&#10;  A 1.09 1.09 0.0 0 1 342.08 323.73&#10;  L 329.77 323.69&#10;  A 0.84 0.84 0.0 0 1 329.00 322.52&#10;  C 329.64 321.00 330.47 319.56 330.48 317.90&#10;  Q 330.51 315.03 330.48 311.92&#10;  C 330.47 310.49 329.57 309.56 329.04 308.30&#10;  A 1.26 1.26 0.0 0 1 330.20 306.55&#10;  L 342.32 306.61&#10;  A 1.11 1.10 -87.3 0 1 343.41 307.81&#10;  L 343.18 310.43&#10;  Q 343.14 310.96 342.69 311.27&#10;  Q 341.81 311.88 340.73 311.68&#10;  Q 340.26 311.59 339.99 311.20&#10;  Q 338.32 308.83 335.66 309.90&#10;  A 1.65 1.65 0.0 0 0 336.24 313.08&#10;  Z"/>
<path fill="#030203" d="&#10;  M 360.27 319.46&#10;  L 361.32 319.48&#10;  Q 362.54 319.50 362.26 320.70&#10;  Q 361.64 323.40 358.87 323.56&#10;  C 355.35 323.77 354.37 321.15 354.25 318.24&#10;  Q 354.20 317.12 353.39 316.47&#10;  Q 352.82 316.02 352.11 316.18&#10;  A 1.25 1.24 83.4 0 0 351.14 317.41&#10;  Q 351.16 319.58 352.65 321.24&#10;  A 1.44 1.44 0.0 0 1 351.61 323.64&#10;  L 346.71 323.73&#10;  A 1.42 1.42 0.0 0 1 345.41 321.68&#10;  L 346.54 319.41&#10;  Q 346.80 318.87 346.79 318.27&#10;  Q 346.70 315.46 346.81 312.50&#10;  C 346.87 310.83 346.21 309.60 345.45 308.20&#10;  A 1.04 1.03 -15.1 0 1 346.33 306.68&#10;  Q 350.10 306.55 354.44 306.71&#10;  C 357.67 306.83 360.07 308.01 359.65 311.78&#10;  Q 359.57 312.47 359.11 313.00&#10;  L 357.66 314.66&#10;  Q 357.24 315.14 357.70 315.59&#10;  Q 359.02 316.85 359.41 318.75&#10;  Q 359.55 319.45 360.27 319.46&#10;  Z&#10;  M 355.47 311.80&#10;  A 2.27 2.27 0.0 0 0 353.20 309.53&#10;  A 2.27 2.27 0.0 0 0 350.93 311.80&#10;  A 2.27 2.27 0.0 0 0 353.20 314.07&#10;  A 2.27 2.27 0.0 0 0 355.47 311.80&#10;  Z"/>
</svg>